<?xml version="1.0" standalone="no"?>
<!DOCTYPE svg PUBLIC "-//W3C//DTD SVG 20010904//EN"
 "http://www.w3.org/TR/2001/REC-SVG-20010904/DTD/svg10.dtd">
<svg version="1.0" xmlns="http://www.w3.org/2000/svg"
 width="300.000000pt" height="300.000000pt" viewBox="0 0 300.000000 300.000000"
 preserveAspectRatio="xMidYMid meet">

<g transform="translate(0.000000,300.000000) scale(0.100000,-0.100000)"
fill="#000000" stroke="none">
<path d="M0 1500 l0 -1500 1500 0 1500 0 0 1500 0 1500 -1500 0 -1500 0 0
-1500z m1779 816 c158 -45 325 -126 421 -206 l35 -29 -752 -1 c-438 0 -753 4
-753 9 0 15 179 124 265 163 175 78 284 98 510 94 158 -3 191 -7 274 -30z
m570 -343 c45 -48 81 -91 81 -95 0 -4 -430 -8 -955 -8 -831 0 -955 2 -948 14
5 8 41 51 81 95 l73 81 794 0 793 0 81 -87z m113 -140 c17 -19 88 -145 88
-156 0 -4 -204 -7 -454 -7 l-455 0 -82 50 c-45 28 -86 50 -90 50 -4 0 -45 -22
-91 -50 l-83 -50 -447 0 c-247 0 -448 4 -448 8 0 4 23 45 51 90 l50 82 973 0
c914 0 974 -1 988 -17z m-1217 -192 c-6 -5 -55 -36 -110 -70 l-100 -61 -349 0
-348 0 6 24 c3 13 15 45 26 70 l19 46 433 0 c253 0 428 -4 423 -9z m1338 -34
c10 -21 20 -51 24 -68 l6 -29 -351 0 -351 0 -103 62 c-57 33 -107 65 -113 70
-5 4 185 7 430 6 l440 -3 18 -38z m-1593 -121 c0 -3 -38 -27 -84 -55 l-84 -51
-257 0 -257 0 7 48 c4 26 9 50 12 55 4 7 663 10 663 3z m1639 -19 c5 -13 11
-36 13 -53 l3 -29 -260 -3 -260 -2 -90 55 -90 55 338 0 337 0 9 -23z m-974
-98 c380 -122 812 -261 880 -284 l70 -23 -1128 -4 c-621 -1 -1130 0 -1132 3
-2 3 119 45 268 93 150 48 400 129 557 181 157 51 287 93 290 94 3 1 91 -26
195 -60z m-875 -13 c0 -2 -20 -16 -44 -30 -44 -26 -47 -26 -245 -26 -111 0
-201 3 -201 8 0 4 3 17 6 30 l6 22 239 0 c132 0 239 -2 239 -4z m1874 -12 c17
-44 16 -44 -193 -44 -195 0 -199 0 -245 26 -25 14 -46 28 -46 30 0 2 108 4
239 4 209 0 240 -2 245 -16z m-2014 -71 c0 -5 -14 -16 -31 -25 -25 -15 -56
-18 -175 -18 l-144 0 0 25 0 25 175 0 c96 0 175 -3 175 -7z m2025 -18 c0 -19
-8 -20 -143 -23 -132 -2 -147 -1 -178 19 -19 11 -34 23 -34 25 0 2 80 3 178 2
169 -3 177 -4 177 -23z m-2155 -65 c-21 -16 -41 -20 -127 -20 -96 0 -103 1
-103 20 0 19 7 20 128 20 l127 0 -25 -20z m2160 0 c0 -19 -7 -20 -95 -20 -67
0 -105 5 -125 15 -17 9 -30 18 -30 20 0 3 56 5 125 5 118 0 125 -1 125 -20z
m-2250 -55 c-13 -16 -140 -22 -140 -7 0 18 16 22 83 22 61 0 68 -2 57 -15z
m2248 -2 c3 -9 -12 -13 -51 -13 -60 0 -87 7 -87 22 0 14 133 5 138 -9z m-2328
-39 c0 -8 -32 -33 -42 -34 -5 0 -8 9 -8 20 0 15 7 20 25 20 14 0 25 -3 25 -6z
m2325 -4 c12 -19 -5 -30 -25 -17 -11 6 -20 15 -20 19 0 12 38 10 45 -2z
m-2195 -296 c28 -59 50 -108 50 -110 0 -2 -8 -4 -18 -4 -11 0 -24 11 -30 25
-10 21 -18 25 -57 25 -39 0 -47 -3 -55 -25 -8 -21 -40 -37 -40 -19 0 9 93 214
97 214 2 0 26 -48 53 -106z m899 90 c28 -20 14 -42 -17 -25 -11 6 -28 8 -36 5
-29 -11 -17 -39 27 -59 38 -19 42 -25 45 -62 2 -33 -1 -44 -20 -57 -28 -20
-57 -20 -86 0 -23 16 -31 54 -11 54 6 0 19 -10 29 -22 15 -19 22 -21 37 -12
34 21 28 51 -16 74 -47 23 -62 46 -50 77 15 41 59 54 98 27z m382 6 c10 -6 19
-17 19 -25 0 -17 -21 -20 -36 -5 -15 15 -44 1 -44 -20 0 -10 13 -23 31 -30 45
-19 59 -37 59 -75 0 -37 -28 -65 -65 -65 -29 0 -65 28 -65 51 0 25 18 24 40
-3 15 -19 22 -21 37 -12 34 21 28 51 -16 74 -49 24 -66 52 -51 80 19 36 56 48
91 30z m678 -99 c25 -124 25 -113 4 -109 -13 2 -21 19 -29 63 l-11 60 -28 -62
c-15 -35 -31 -63 -35 -63 -4 0 -18 27 -31 60 -13 33 -27 60 -30 60 -4 0 -9
-27 -13 -60 -6 -52 -10 -60 -28 -60 -14 0 -18 5 -14 16 3 8 13 55 22 105 9 49
20 89 23 89 4 0 20 -31 37 -70 16 -38 32 -70 36 -70 4 0 10 9 13 21 11 32 57
131 60 127 2 -2 12 -50 24 -107z m186 89 c24 -26 12 -37 -20 -20 -22 12 -28
12 -42 -3 -13 -13 -14 -19 -3 -31 7 -9 18 -16 25 -16 24 0 65 -41 65 -66 0
-30 -41 -74 -69 -74 -11 0 -33 11 -48 24 -22 20 -26 27 -16 37 10 10 17 9 33
-9 25 -26 33 -27 54 -6 21 21 7 47 -38 68 -50 24 -60 62 -26 96 26 26 62 26
85 0z m-1930 -6 c10 -11 15 -29 13 -53 -3 -33 -7 -37 -45 -51 -40 -13 -43 -17
-43 -52 0 -27 -4 -38 -15 -38 -12 0 -15 18 -15 105 l0 105 44 0 c28 0 51 -6
61 -16z m213 4 c-3 -7 -25 -14 -50 -16 -42 -3 -45 -5 -40 -27 4 -21 10 -25 43
-25 28 0 39 -4 39 -15 0 -11 -11 -15 -39 -15 -37 0 -39 -2 -43 -35 -4 -34 -4
-34 41 -37 24 -2 46 -9 49 -15 3 -10 -14 -13 -62 -13 l-66 0 0 105 0 105 66 0
c48 0 65 -3 62 -12z m117 -18 c9 -16 19 -30 23 -30 4 0 16 14 25 30 10 17 27
30 37 30 17 0 16 -5 -12 -50 l-30 -49 31 -56 c27 -48 29 -55 13 -55 -11 0 -28
17 -42 42 l-23 41 -19 -36 c-10 -20 -27 -41 -38 -47 -29 -16 -26 4 11 61 l31
49 -31 50 c-28 46 -29 50 -11 50 12 0 26 -12 35 -30z m484 -12 l24 -42 19 38
c18 35 43 55 54 43 3 -3 -8 -29 -25 -59 -22 -39 -31 -68 -31 -101 0 -35 -4
-47 -15 -47 -11 0 -15 11 -15 43 0 30 -10 58 -35 100 -41 67 -41 67 -17 67 10
0 27 -18 41 -42z m469 30 c-3 -7 -14 -14 -26 -16 -21 -3 -22 -9 -22 -93 0 -82
-1 -89 -20 -89 -19 0 -20 7 -20 89 0 84 -1 90 -22 93 -12 2 -23 9 -26 16 -3 9
15 12 68 12 53 0 71 -3 68 -12z m182 -3 c0 -11 -12 -15 -45 -15 -41 0 -45 -2
-45 -25 0 -23 4 -25 45 -25 33 0 45 -4 45 -15 0 -11 -12 -15 -45 -15 -45 0
-45 0 -45 -34 0 -34 1 -35 42 -38 23 -2 43 -9 46 -15 3 -10 -13 -13 -57 -13
l-61 0 0 105 0 105 60 0 c47 0 60 -3 60 -15z"/>
<path d="M401 799 c-6 -17 -11 -34 -11 -35 0 -2 13 -4 30 -4 28 0 29 1 18 28
-19 44 -25 45 -37 11z"/>
<path d="M610 831 c0 -36 13 -46 40 -31 31 17 23 54 -12 58 -25 3 -28 0 -28
-27z"/>
</g>
</svg>
